# xmcd
#
# Track frame offsets:
#	150
#	18862
#	33497
#	51437
#	70555
#	89517
#	106885
#	122760
#	139700
#	159452
#	176785
#	195507
#	212935
#	231185
#	249827
#	269935
#	293322
#
# Disc length: 4177 seconds
# Revision: 0
# Processed by: cddbd v1.5.2PL0 Copyright (c) Steve Scherf et al.
# Submitted via: dBpowerAMP V12.0
#
DISCID=f1104f11
DTITLE=Various Artist - Slow Grind
DYEAR=2011
DGENRE=R&B
TTITLE0=Jennifer Hudson - Spotlight
TTITLE1=Jamie Foxx - Unpredictable
TTITLE2=Jazmine Sullivan - Need U Bad
TTITLE3=Robin Thicke - Lost Without U
TTITLE4=Chris Brown - With You
TTITLE5=Fantasia - Truth Is
TTITLE6=Pretty Ricky - Grind With Me
TTITLE7=Frankie J featuring Baby Bash - Obsession (No Es Amor)
TTITLE8=Jordin Sparks featuring Chris Brown - No Air
TTITLE9=J. Holiday - Bed
TTITLE10=Mario - Let Me Love You
TTITLE11=Leona Lewis - Better In Time
TTITLE12=Ginuwine - In Those Jeans
TTITLE13=Bow Wow featuring Omarion - Let Me Hold You
TTITLE14=Ciara - Promise
TTITLE15=R. Kelly - When A Woman Loves
TTITLE16=Whitney Houston - I Look To You
EXTD=
EXTT0=
EXTT1=
EXTT2=
EXTT3=
EXTT4=
EXTT5=
EXTT6=
EXTT7=
EXTT8=
EXTT9=
EXTT10=
EXTT11=
EXTT12=
EXTT13=
EXTT14=
EXTT15=
EXTT16=
PLAYORDER=
